<svg xmlns="http://www.w3.org/2000/svg" viewBox="0 0 512 512" style="border-radius: 25%;">
    <rect height="100%" width="100%" fill="#CCC" />
    <g fill="#14400b" transform="scale(0.5) translate(5, 5)">
        <!--!Font Awesome Free 6.6.0 by @fontawesome - https://fontawesome.com License - https://fontawesome.com/license/free Copyright 2024 Fonticons, Inc.-->
        <path
            d="M64 416L168.6 180.7c15.3-34.4 40.3-63.5 72-83.7l146.9-94c3-1.9 6.5-2.9 10-2.9C407.7 0 416 8.3 416 18.6l0 1.6c0 2.6-.5 5.1-1.4 7.5L354.8 176.9c-1.9 4.7-2.8 9.7-2.8 14.7c0 5.5 1.2 11 3.4 16.1L448 416l-207.1 0 11.8-35.4 40.4-13.5c6.5-2.2 10.9-8.3 10.9-15.2s-4.4-13-10.9-15.2l-40.4-13.5-13.5-40.4C237 276.4 230.9 272 224 272s-13 4.4-15.2 10.9l-13.5 40.4-40.4 13.5C148.4 339 144 345.1 144 352s4.4 13 10.9 15.2l40.4 13.5L207.1 416 64 416zM279.6 141.5c-1.1-3.3-4.1-5.5-7.6-5.5s-6.5 2.2-7.6 5.5l-6.7 20.2-20.2 6.7c-3.3 1.1-5.5 4.1-5.5 7.6s2.2 6.5 5.5 7.6l20.2 6.7 6.7 20.2c1.1 3.3 4.1 5.5 7.6 5.5s6.5-2.2 7.6-5.5l6.7-20.2 20.2-6.7c3.3-1.1 5.5-4.1 5.5-7.6s-2.2-6.5-5.5-7.6l-20.2-6.7-6.7-20.2zM32 448l448 0c17.7 0 32 14.3 32 32s-14.3 32-32 32L32 512c-17.7 0-32-14.3-32-32s14.3-32 32-32z" />
    </g>
    <g fill="#000" transform="scale(0.5) translate(705, -65) rotate(30)">
        <!--!Font Awesome Free 6.6.0 by @fontawesome - https://fontawesome.com License - https://fontawesome.com/license/free Copyright 2024 Fonticons, Inc.-->
        <path
            d="M192 0c17.7 0 32 14.3 32 32l0 112-64 0 0-112c0-17.7 14.3-32 32-32zM64 64c0-17.7 14.3-32 32-32s32 14.3 32 32l0 80-64 0 0-80zm192 0c0-17.7 14.3-32 32-32s32 14.3 32 32l0 96c0 17.7-14.3 32-32 32s-32-14.3-32-32l0-96zm96 64c0-17.7 14.3-32 32-32s32 14.3 32 32l0 64c0 17.7-14.3 32-32 32s-32-14.3-32-32l0-64zm-96 88l0-.6c9.4 5.4 20.3 8.6 32 8.6c13.2 0 25.4-4 35.6-10.8c8.7 24.9 32.5 42.8 60.4 42.8c11.7 0 22.6-3.1 32-8.6l0 8.6c0 52.3-25.1 98.8-64 128l0 96c0 17.7-14.3 32-32 32l-160 0c-17.7 0-32-14.3-32-32l0-78.4c-17.3-7.9-33.2-18.8-46.9-32.5L69.5 357.5C45.5 333.5 32 300.9 32 267l0-27c0-35.3 28.7-64 64-64l88 0c22.1 0 40 17.9 40 40s-17.9 40-40 40l-56 0c-8.8 0-16 7.2-16 16s7.2 16 16 16l56 0c39.8 0 72-32.2 72-72z" />
    </g>
    <g fill="#333" transform="scale(0.5) translate(5, 507)">
        <!--!Font Awesome Free 6.6.0 by @fontawesome - https://fontawesome.com License - https://fontawesome.com/license/free Copyright 2024 Fonticons, Inc.-->
        <path
            d="M256 0c4.6 0 9.2 1 13.4 2.9L457.7 82.8c22 9.3 38.4 31 38.3 57.2c-.5 99.2-41.3 280.7-213.6 363.2c-16.7 8-36.1 8-52.8 0C57.3 420.7 16.5 239.2 16 140c-.1-26.2 16.3-47.9 38.3-57.2L242.7 2.9C246.8 1 251.4 0 256 0zm0 66.8l0 378.1C394 378 431.1 230.1 432 141.4L256 66.8s0 0 0 0z" />
    </g>
    <g fill="#272f77" transform="scale(0.5) translate(507, 507)">
        <!--!Font Awesome Free 6.6.0 by @fontawesome - https://fontawesome.com License - https://fontawesome.com/license/free Copyright 2024 Fonticons, Inc.-->
        <path
            d="M464 6.1c9.5-8.5 24-8.1 33 .9l8 8c9 9 9.4 23.5 .9 33l-85.8 95.9c-2.6 2.9-4.1 6.7-4.1 10.7l0 21.4c0 8.8-7.2 16-16 16l-15.8 0c-4.6 0-8.9 1.9-11.9 5.3L100.7 500.9C94.3 508 85.3 512 75.8 512c-8.8 0-17.3-3.5-23.5-9.8L9.7 459.7C3.5 453.4 0 445 0 436.2c0-9.5 4-18.5 11.1-24.8l111.6-99.8c3.4-3 5.3-7.4 5.3-11.9l0-27.6c0-8.8 7.2-16 16-16l34.6 0c3.9 0 7.7-1.5 10.7-4.1L464 6.1zM432 288c3.6 0 6.7 2.4 7.7 5.8l14.8 51.7 51.7 14.8c3.4 1 5.8 4.1 5.8 7.7s-2.4 6.7-5.8 7.7l-51.7 14.8-14.8 51.7c-1 3.4-4.1 5.8-7.7 5.8s-6.7-2.4-7.7-5.8l-14.8-51.7-51.7-14.8c-3.4-1-5.8-4.1-5.8-7.7s2.4-6.7 5.8-7.7l51.7-14.8 14.8-51.7c1-3.4 4.1-5.8 7.7-5.8zM87.7 69.8l14.8 51.7 51.7 14.8c3.4 1 5.8 4.1 5.8 7.7s-2.4 6.7-5.8 7.7l-51.7 14.8L87.7 218.2c-1 3.4-4.1 5.8-7.7 5.8s-6.7-2.4-7.7-5.8L57.5 166.5 5.8 151.7c-3.4-1-5.8-4.1-5.8-7.7s2.4-6.7 5.8-7.7l51.7-14.8L72.3 69.8c1-3.4 4.1-5.8 7.7-5.8s6.7 2.4 7.7 5.8zM208 0c3.7 0 6.9 2.5 7.8 6.1l6.8 27.3 27.3 6.8c3.6 .9 6.1 4.1 6.1 7.8s-2.5 6.9-6.1 7.8l-27.3 6.8-6.8 27.3c-.9 3.6-4.1 6.1-7.8 6.1s-6.9-2.5-7.8-6.1l-6.8-27.3-27.3-6.8c-3.6-.9-6.1-4.1-6.1-7.8s2.5-6.9 6.1-7.8l27.3-6.8 6.8-27.3c.9-3.6 4.1-6.1 7.8-6.1z" />
    </g>
</svg>